<?xml version="1.0" encoding="UTF-8"?>
<svg xmlns="http://www.w3.org/2000/svg" width="1440" height="960" viewBox="0 0 1440 960">
<metadata>TRILYVA WEB ICONS — 150 original vector icons. 24px source grid, 2px rounded outline. Transparent background.</metadata>
<g id="TWI-001" data-name="Home" data-category="navigation" transform="translate(36 36) scale(3.2)" fill="none" stroke="#111111" stroke-width="2" stroke-linecap="round" stroke-linejoin="round"><path d="M4 10.5 12 4l8 6.5v8.5H14v-5h-4v5H4z M7 8.2 12 4l5 4.2"/></g>
<g id="TWI-002" data-name="Search" data-category="navigation" transform="translate(132 36) scale(3.2)" fill="none" stroke="#111111" stroke-width="2" stroke-linecap="round" stroke-linejoin="round"><path d="M10.5 4.5a6 6 0 1 0 0 12 6 6 0 0 0 0-12Z M15 15l5 5"/></g>
<g id="TWI-003" data-name="Menu" data-category="navigation" transform="translate(228 36) scale(3.2)" fill="none" stroke="#111111" stroke-width="2" stroke-linecap="round" stroke-linejoin="round"><path d="M4 6h16 M4 12h16 M4 18h16"/></g>
<g id="TWI-004" data-name="Close" data-category="navigation" transform="translate(324 36) scale(3.2)" fill="none" stroke="#111111" stroke-width="2" stroke-linecap="round" stroke-linejoin="round"><path d="M5 5l14 14 M19 5 5 19"/></g>
<g id="TWI-005" data-name="Plus" data-category="navigation" transform="translate(420 36) scale(3.2)" fill="none" stroke="#111111" stroke-width="2" stroke-linecap="round" stroke-linejoin="round"><path d="M12 5v14 M5 12h14"/></g>
<g id="TWI-006" data-name="Minus" data-category="navigation" transform="translate(516 36) scale(3.2)" fill="none" stroke="#111111" stroke-width="2" stroke-linecap="round" stroke-linejoin="round"><path d="M5 12h14"/></g>
<g id="TWI-007" data-name="Check" data-category="navigation" transform="translate(612 36) scale(3.2)" fill="none" stroke="#111111" stroke-width="2" stroke-linecap="round" stroke-linejoin="round"><path d="M4.5 12.5 9 17l10.5-10"/></g>
<g id="TWI-008" data-name="X Circle" data-category="navigation" transform="translate(708 36) scale(3.2)" fill="none" stroke="#111111" stroke-width="2" stroke-linecap="round" stroke-linejoin="round"><path d="M12 4a8 8 0 1 0 0 16 8 8 0 0 0 0-16Z M9 9l6 6 M15 9l-6 6"/></g>
<g id="TWI-009" data-name="Arrow Up" data-category="navigation" transform="translate(804 36) scale(3.2)" fill="none" stroke="#111111" stroke-width="2" stroke-linecap="round" stroke-linejoin="round"><path d="M12 19V5 M6.5 10.5 12 5l5.5 5.5"/></g>
<g id="TWI-010" data-name="Arrow Down" data-category="navigation" transform="translate(900 36) scale(3.2)" fill="none" stroke="#111111" stroke-width="2" stroke-linecap="round" stroke-linejoin="round"><path d="M12 5v14 M6.5 13.5 12 19l5.5-5.5"/></g>
<g id="TWI-011" data-name="Arrow Left" data-category="navigation" transform="translate(996 36) scale(3.2)" fill="none" stroke="#111111" stroke-width="2" stroke-linecap="round" stroke-linejoin="round"><path d="M19 12H5 M10.5 6.5 5 12l5.5 5.5"/></g>
<g id="TWI-012" data-name="Arrow Right" data-category="navigation" transform="translate(1092 36) scale(3.2)" fill="none" stroke="#111111" stroke-width="2" stroke-linecap="round" stroke-linejoin="round"><path d="M5 12h14 M13.5 6.5 19 12l-5.5 5.5"/></g>
<g id="TWI-013" data-name="Chevron Up" data-category="navigation" transform="translate(1188 36) scale(3.2)" fill="none" stroke="#111111" stroke-width="2" stroke-linecap="round" stroke-linejoin="round"><path d="M6 14.5 12 8l6 6.5"/></g>
<g id="TWI-014" data-name="Chevron Down" data-category="navigation" transform="translate(1284 36) scale(3.2)" fill="none" stroke="#111111" stroke-width="2" stroke-linecap="round" stroke-linejoin="round"><path d="M6 9.5 12 16l6-6.5"/></g>
<g id="TWI-015" data-name="Chevron Left" data-category="navigation" transform="translate(1380 36) scale(3.2)" fill="none" stroke="#111111" stroke-width="2" stroke-linecap="round" stroke-linejoin="round"><path d="M14.5 6 8 12l6.5 6"/></g>
<g id="TWI-016" data-name="Chevron Right" data-category="navigation" transform="translate(36 132) scale(3.2)" fill="none" stroke="#111111" stroke-width="2" stroke-linecap="round" stroke-linejoin="round"><path d="M9.5 6 16 12l-6.5 6"/></g>
<g id="TWI-017" data-name="Expand" data-category="navigation" transform="translate(132 132) scale(3.2)" fill="none" stroke="#111111" stroke-width="2" stroke-linecap="round" stroke-linejoin="round"><path d="M8 4H4v4 M16 4h4v4 M20 16v4h-4 M4 16v4h4 M4 8l5-5 M20 8l-5-5 M20 16l-5 5 M4 16l5 5"/></g>
<g id="TWI-018" data-name="Collapse" data-category="navigation" transform="translate(228 132) scale(3.2)" fill="none" stroke="#111111" stroke-width="2" stroke-linecap="round" stroke-linejoin="round"><path d="M9 4H4v5 M15 4h5v5 M20 15v5h-5 M4 15v5h5 M4 9l5-5 M20 9l-5-5 M20 15l-5 5 M4 15l5 5"/></g>
<g id="TWI-019" data-name="External Link" data-category="navigation" transform="translate(324 132) scale(3.2)" fill="none" stroke="#111111" stroke-width="2" stroke-linecap="round" stroke-linejoin="round"><path d="M14 4h6v6 M20 4l-8 8 M18 13v5a2 2 0 0 1-2 2H6a2 2 0 0 1-2-2V8a2 2 0 0 1 2-2h5"/></g>
<g id="TWI-020" data-name="Refresh" data-category="navigation" transform="translate(420 132) scale(3.2)" fill="none" stroke="#111111" stroke-width="2" stroke-linecap="round" stroke-linejoin="round"><path d="M19 8a8 8 0 1 0 1 6 M19 8V4 M19 8h-4"/></g>
<g id="TWI-021" data-name="File" data-category="files-media" transform="translate(516 132) scale(3.2)" fill="none" stroke="#111111" stroke-width="2" stroke-linecap="round" stroke-linejoin="round"><path d="M6 3h7l5 5v13H6z M13 3v5h5 M9 13h6 M9 17h6"/></g>
<g id="TWI-022" data-name="File Plus" data-category="files-media" transform="translate(612 132) scale(3.2)" fill="none" stroke="#111111" stroke-width="2" stroke-linecap="round" stroke-linejoin="round"><path d="M6 3h7l5 5v13H6z M13 3v5h5 M12 12v6 M9.5 15h5"/></g>
<g id="TWI-023" data-name="File Minus" data-category="files-media" transform="translate(708 132) scale(3.2)" fill="none" stroke="#111111" stroke-width="2" stroke-linecap="round" stroke-linejoin="round"><path d="M6 3h7l5 5v13H6z M13 3v5h5 M9.5 15h5"/></g>
<g id="TWI-024" data-name="Folder" data-category="files-media" transform="translate(804 132) scale(3.2)" fill="none" stroke="#111111" stroke-width="2" stroke-linecap="round" stroke-linejoin="round"><path d="M3 7h7l2 2h9v10H3z"/></g>
<g id="TWI-025" data-name="Folder Open" data-category="files-media" transform="translate(900 132) scale(3.2)" fill="none" stroke="#111111" stroke-width="2" stroke-linecap="round" stroke-linejoin="round"><path d="M3 7h7l2 2h9l-1.5 9H5z"/></g>
<g id="TWI-026" data-name="Folder Plus" data-category="files-media" transform="translate(996 132) scale(3.2)" fill="none" stroke="#111111" stroke-width="2" stroke-linecap="round" stroke-linejoin="round"><path d="M3 7h7l2 2h9v10H3z M12 12v5 M9.5 14.5h5"/></g>
<g id="TWI-027" data-name="Folder Minus" data-category="files-media" transform="translate(1092 132) scale(3.2)" fill="none" stroke="#111111" stroke-width="2" stroke-linecap="round" stroke-linejoin="round"><path d="M3 7h7l2 2h9v10H3z M9.5 14.5h5"/></g>
<g id="TWI-028" data-name="Image" data-category="files-media" transform="translate(1188 132) scale(3.2)" fill="none" stroke="#111111" stroke-width="2" stroke-linecap="round" stroke-linejoin="round"><path d="M4 5h16v14H4z M5 16l4-4 3 3 2-2 5 5 M8 9.5a1.5 1.5 0 1 0 0 .01"/></g>
<g id="TWI-029" data-name="Gallery" data-category="files-media" transform="translate(1284 132) scale(3.2)" fill="none" stroke="#111111" stroke-width="2" stroke-linecap="round" stroke-linejoin="round"><path d="M4 5h11a2 2 0 0 1 2 2v11H6a2 2 0 0 1-2-2z M8 5v14 M17 9l3 3-3 3 M10 9h4 M10 13h3"/></g>
<g id="TWI-030" data-name="Video" data-category="files-media" transform="translate(1380 132) scale(3.2)" fill="none" stroke="#111111" stroke-width="2" stroke-linecap="round" stroke-linejoin="round"><path d="M4 6h11v12H4z M15 10l5-3v10l-5-3z"/></g>
<g id="TWI-031" data-name="Camera" data-category="files-media" transform="translate(36 228) scale(3.2)" fill="none" stroke="#111111" stroke-width="2" stroke-linecap="round" stroke-linejoin="round"><path d="M4 8h3l1.5-2h7L17 8h3v10H4z M12 10a3 3 0 1 0 0 6 3 3 0 0 0 0-6Z"/></g>
<g id="TWI-032" data-name="Music" data-category="files-media" transform="translate(132 228) scale(3.2)" fill="none" stroke="#111111" stroke-width="2" stroke-linecap="round" stroke-linejoin="round"><path d="M9 18V6l9-2v12 M9 18a3 3 0 1 1-3-3 3 3 0 0 1 3 3Z M18 16a3 3 0 1 1-3-3 3 3 0 0 1 3 3Z"/></g>
<g id="TWI-033" data-name="Microphone" data-category="files-media" transform="translate(228 228) scale(3.2)" fill="none" stroke="#111111" stroke-width="2" stroke-linecap="round" stroke-linejoin="round"><path d="M12 4a3 3 0 0 0-3 3v5a3 3 0 0 0 6 0V7a3 3 0 0 0-3-3Z M6 11v1a6 6 0 0 0 12 0v-1 M12 18v3 M9 21h6"/></g>
<g id="TWI-034" data-name="Play" data-category="files-media" transform="translate(324 228) scale(3.2)" fill="none" stroke="#111111" stroke-width="2" stroke-linecap="round" stroke-linejoin="round"><path d="M8 5v14l11-7z"/></g>
<g id="TWI-035" data-name="Pause" data-category="files-media" transform="translate(420 228) scale(3.2)" fill="none" stroke="#111111" stroke-width="2" stroke-linecap="round" stroke-linejoin="round"><path d="M8 5v14 M16 5v14"/></g>
<g id="TWI-036" data-name="Stop" data-category="files-media" transform="translate(516 228) scale(3.2)" fill="none" stroke="#111111" stroke-width="2" stroke-linecap="round" stroke-linejoin="round"><path d="M6 6h12v12H6z"/></g>
<g id="TWI-037" data-name="Skip Next" data-category="files-media" transform="translate(612 228) scale(3.2)" fill="none" stroke="#111111" stroke-width="2" stroke-linecap="round" stroke-linejoin="round"><path d="M5 5v14l9-7z M18 5v14"/></g>
<g id="TWI-038" data-name="Skip Prev" data-category="files-media" transform="translate(708 228) scale(3.2)" fill="none" stroke="#111111" stroke-width="2" stroke-linecap="round" stroke-linejoin="round"><path d="M19 5v14l-9-7z M6 5v14"/></g>
<g id="TWI-039" data-name="Volume" data-category="files-media" transform="translate(804 228) scale(3.2)" fill="none" stroke="#111111" stroke-width="2" stroke-linecap="round" stroke-linejoin="round"><path d="M5 9h3l4-4v14l-4-4H5z M15 9.5a4 4 0 0 1 0 5 M17.5 7a8 8 0 0 1 0 10"/></g>
<g id="TWI-040" data-name="Mute" data-category="files-media" transform="translate(900 228) scale(3.2)" fill="none" stroke="#111111" stroke-width="2" stroke-linecap="round" stroke-linejoin="round"><path d="M5 9h3l4-4v14l-4-4H5z M16 9l4 6 M20 9l-4 6"/></g>
<g id="TWI-041" data-name="Mail" data-category="communication" transform="translate(996 228) scale(3.2)" fill="none" stroke="#111111" stroke-width="2" stroke-linecap="round" stroke-linejoin="round"><path d="M4 6h16v12H4z M4 7l8 6 8-6"/></g>
<g id="TWI-042" data-name="Inbox" data-category="communication" transform="translate(1092 228) scale(3.2)" fill="none" stroke="#111111" stroke-width="2" stroke-linecap="round" stroke-linejoin="round"><path d="M4 5h16v14H4z M4 14h5l1.5 2h3L15 14h5"/></g>
<g id="TWI-043" data-name="Send" data-category="communication" transform="translate(1188 228) scale(3.2)" fill="none" stroke="#111111" stroke-width="2" stroke-linecap="round" stroke-linejoin="round"><path d="M4 12 20 5l-4 14-4-6z M12 13l4-8"/></g>
<g id="TWI-044" data-name="Reply" data-category="communication" transform="translate(1284 228) scale(3.2)" fill="none" stroke="#111111" stroke-width="2" stroke-linecap="round" stroke-linejoin="round"><path d="M20 11a7 7 0 0 0-13-3L4 10 M4 10l5 1"/></g>
<g id="TWI-045" data-name="Forward" data-category="communication" transform="translate(1380 228) scale(3.2)" fill="none" stroke="#111111" stroke-width="2" stroke-linecap="round" stroke-linejoin="round"><path d="M4 11a7 7 0 0 1 13-3l3 2 M20 10l-5 1"/></g>
<g id="TWI-046" data-name="Chat" data-category="communication" transform="translate(36 324) scale(3.2)" fill="none" stroke="#111111" stroke-width="2" stroke-linecap="round" stroke-linejoin="round"><path d="M5 5h14v10a2 2 0 0 1-2 2H9l-4 3z"/></g>
<g id="TWI-047" data-name="Chat Dots" data-category="communication" transform="translate(132 324) scale(3.2)" fill="none" stroke="#111111" stroke-width="2" stroke-linecap="round" stroke-linejoin="round"><path d="M5 5h14v10a2 2 0 0 1-2 2H9l-4 3z M9 11h.01 M12 11h.01 M15 11h.01"/></g>
<g id="TWI-048" data-name="Phone" data-category="communication" transform="translate(228 324) scale(3.2)" fill="none" stroke="#111111" stroke-width="2" stroke-linecap="round" stroke-linejoin="round"><path d="M7 4l3 2-2 3a13 13 0 0 0 7 7l3-2 2 3-2.5 2.5C11 19 5 13 4.5 6.5z"/></g>
<g id="TWI-049" data-name="Video Call" data-category="communication" transform="translate(324 324) scale(3.2)" fill="none" stroke="#111111" stroke-width="2" stroke-linecap="round" stroke-linejoin="round"><path d="M4 7h11v10H4z M15 10l5-3v10l-5-3z"/></g>
<g id="TWI-050" data-name="Bell" data-category="communication" transform="translate(420 324) scale(3.2)" fill="none" stroke="#111111" stroke-width="2" stroke-linecap="round" stroke-linejoin="round"><path d="M6 10a6 6 0 0 1 12 0v4l2 2H4l2-2z M10 19h4"/></g>
<g id="TWI-051" data-name="User" data-category="people" transform="translate(516 324) scale(3.2)" fill="none" stroke="#111111" stroke-width="2" stroke-linecap="round" stroke-linejoin="round"><path d="M12 5a3 3 0 1 0 0 6 3 3 0 0 0 0-6ZM5 19a7 7 0 0 1 14 0"/></g>
<g id="TWI-052" data-name="User Plus" data-category="people" transform="translate(612 324) scale(3.2)" fill="none" stroke="#111111" stroke-width="2" stroke-linecap="round" stroke-linejoin="round"><path d="M12 5a3 3 0 1 0 0 6 3 3 0 0 0 0-6ZM5 19a7 7 0 0 1 14 0 M18 7v6 M15 10h6"/></g>
<g id="TWI-053" data-name="User Minus" data-category="people" transform="translate(708 324) scale(3.2)" fill="none" stroke="#111111" stroke-width="2" stroke-linecap="round" stroke-linejoin="round"><path d="M12 5a3 3 0 1 0 0 6 3 3 0 0 0 0-6ZM5 19a7 7 0 0 1 14 0 M15 10h6"/></g>
<g id="TWI-054" data-name="Users" data-category="people" transform="translate(804 324) scale(3.2)" fill="none" stroke="#111111" stroke-width="2" stroke-linecap="round" stroke-linejoin="round"><path d="M8.5 6a2.5 2.5 0 1 0 0 5 2.5 2.5 0 0 0 0-5ZM3.5 19a5 5 0 0 1 10 0 M16 7a2 2 0 1 0 0 4 M15 13a4.5 4.5 0 0 1 5.5 4"/></g>
<g id="TWI-055" data-name="Heart" data-category="people" transform="translate(900 324) scale(3.2)" fill="none" stroke="#111111" stroke-width="2" stroke-linecap="round" stroke-linejoin="round"><path d="M12 19s-7-4.5-7-9a4 4 0 0 1 7-2.4A4 4 0 0 1 19 10c0 4.5-7 9-7 9Z"/></g>
<g id="TWI-056" data-name="Star" data-category="people" transform="translate(996 324) scale(3.2)" fill="none" stroke="#111111" stroke-width="2" stroke-linecap="round" stroke-linejoin="round"><path d="M12 4l2.3 4.7 5.2.8-3.8 3.7.9 5.2-4.6-2.5-4.6 2.5.9-5.2-3.8-3.7 5.2-.8z"/></g>
<g id="TWI-057" data-name="Bookmark" data-category="people" transform="translate(1092 324) scale(3.2)" fill="none" stroke="#111111" stroke-width="2" stroke-linecap="round" stroke-linejoin="round"><path d="M6 4h12v16l-6-4-6 4z"/></g>
<g id="TWI-058" data-name="Share" data-category="people" transform="translate(1188 324) scale(3.2)" fill="none" stroke="#111111" stroke-width="2" stroke-linecap="round" stroke-linejoin="round"><path d="M8 12l7-5 M8 12l7 5 M8 12a2.5 2.5 0 1 1-5 0 2.5 2.5 0 0 1 5 0ZM21 6.5a2.5 2.5 0 1 1-5 0 2.5 2.5 0 0 1 5 0ZM21 17.5a2.5 2.5 0 1 1-5 0 2.5 2.5 0 0 1 5 0Z"/></g>
<g id="TWI-059" data-name="Thumb Up" data-category="people" transform="translate(1284 324) scale(3.2)" fill="none" stroke="#111111" stroke-width="2" stroke-linecap="round" stroke-linejoin="round"><path d="M8 10v9H5V10z M8 10l4-6 2 1-2 5h6a2 2 0 0 1 2 2l-1 7H8"/></g>
<g id="TWI-060" data-name="Flag" data-category="people" transform="translate(1380 324) scale(3.2)" fill="none" stroke="#111111" stroke-width="2" stroke-linecap="round" stroke-linejoin="round"><path d="M5 20V5 M5 6c5-3 9 3 14 0v9c-5 3-9-3-14 0"/></g>
<g id="TWI-061" data-name="Cart" data-category="commerce" transform="translate(36 420) scale(3.2)" fill="none" stroke="#111111" stroke-width="2" stroke-linecap="round" stroke-linejoin="round"><path d="M4 5h2l2 10h9l2-7H7 M9 19a1.5 1.5 0 1 0 0 .01 M17 19a1.5 1.5 0 1 0 0 .01"/></g>
<g id="TWI-062" data-name="Bag" data-category="commerce" transform="translate(132 420) scale(3.2)" fill="none" stroke="#111111" stroke-width="2" stroke-linecap="round" stroke-linejoin="round"><path d="M5 8h14l-1 12H6z M9 8V6a3 3 0 0 1 6 0v2"/></g>
<g id="TWI-063" data-name="Credit Card" data-category="commerce" transform="translate(228 420) scale(3.2)" fill="none" stroke="#111111" stroke-width="2" stroke-linecap="round" stroke-linejoin="round"><path d="M4 6h16v12H4z M4 10h16"/></g>
<g id="TWI-064" data-name="Wallet" data-category="commerce" transform="translate(324 420) scale(3.2)" fill="none" stroke="#111111" stroke-width="2" stroke-linecap="round" stroke-linejoin="round"><path d="M4 7h15a2 2 0 0 1 2 2v9H4z M4 7V5h13a2 2 0 0 1 2 2 M16 13h3"/></g>
<g id="TWI-065" data-name="Receipt" data-category="commerce" transform="translate(420 420) scale(3.2)" fill="none" stroke="#111111" stroke-width="2" stroke-linecap="round" stroke-linejoin="round"><path d="M6 4h12v16l-3-2-3 2-3-2-3 2z M9 8h6 M9 12h6 M9 16h4"/></g>
<g id="TWI-066" data-name="Tag" data-category="commerce" transform="translate(516 420) scale(3.2)" fill="none" stroke="#111111" stroke-width="2" stroke-linecap="round" stroke-linejoin="round"><path d="M4 6v6l8 8 7-7-8-8H4z M7.5 8.5h.01"/></g>
<g id="TWI-067" data-name="Gift" data-category="commerce" transform="translate(612 420) scale(3.2)" fill="none" stroke="#111111" stroke-width="2" stroke-linecap="round" stroke-linejoin="round"><path d="M4 9h16v10H4z M3 6h18v3H3z M12 6v13 M12 6H8.5a2.5 2.5 0 1 1 0-5c2 0 3.5 5 3.5 5ZM12 6h3.5a2.5 2.5 0 1 0 0-5C13.5 1 12 6 12 6Z"/></g>
<g id="TWI-068" data-name="Percent" data-category="commerce" transform="translate(708 420) scale(3.2)" fill="none" stroke="#111111" stroke-width="2" stroke-linecap="round" stroke-linejoin="round"><path d="M7 17 17 7 M8 8a1.5 1.5 0 1 0 0 .01 M16 16a1.5 1.5 0 1 0 0 .01"/></g>
<g id="TWI-069" data-name="Dollar" data-category="commerce" transform="translate(804 420) scale(3.2)" fill="none" stroke="#111111" stroke-width="2" stroke-linecap="round" stroke-linejoin="round"><path d="M12 3v18 M16 7c0-2-1.8-3-4-3s-4 1-4 3 1.6 3 4 4 4 2 4 4-1.8 3-4 3-4-1-4-3"/></g>
<g id="TWI-070" data-name="Coins" data-category="commerce" transform="translate(900 420) scale(3.2)" fill="none" stroke="#111111" stroke-width="2" stroke-linecap="round" stroke-linejoin="round"><path d="M8 7a5 3 0 1 0 0 6 5 3 0 0 0-10 0 M8 7a5 3 0 0 1 10 0v6a5 3 0 0 1-10 0 M8 10a5 3 0 0 0 10 0"/></g>
<g id="TWI-071" data-name="Lock" data-category="security" transform="translate(996 420) scale(3.2)" fill="none" stroke="#111111" stroke-width="2" stroke-linecap="round" stroke-linejoin="round"><path d="M7 10V7a5 5 0 0 1 10 0v3 M5 10h14v10H5z"/></g>
<g id="TWI-072" data-name="Unlock" data-category="security" transform="translate(1092 420) scale(3.2)" fill="none" stroke="#111111" stroke-width="2" stroke-linecap="round" stroke-linejoin="round"><path d="M8 10V7a4 4 0 0 1 8 0 M5 10h14v10H5z M16 7v1"/></g>
<g id="TWI-073" data-name="Shield" data-category="security" transform="translate(1188 420) scale(3.2)" fill="none" stroke="#111111" stroke-width="2" stroke-linecap="round" stroke-linejoin="round"><path d="M12 3l7 3v5c0 5-3 8-7 10-4-2-7-5-7-10V6z"/></g>
<g id="TWI-074" data-name="Shield Check" data-category="security" transform="translate(1284 420) scale(3.2)" fill="none" stroke="#111111" stroke-width="2" stroke-linecap="round" stroke-linejoin="round"><path d="M12 3l7 3v5c0 5-3 8-7 10-4-2-7-5-7-10V6z M8.5 12.5l2.3 2.3 4.7-5"/></g>
<g id="TWI-075" data-name="Key" data-category="security" transform="translate(1380 420) scale(3.2)" fill="none" stroke="#111111" stroke-width="2" stroke-linecap="round" stroke-linejoin="round"><path d="M13 8a4 4 0 1 1-2-4 M11 12l-7 7 M6 15l3 3 M8 13l3 3"/></g>
<g id="TWI-076" data-name="Fingerprint" data-category="security" transform="translate(36 516) scale(3.2)" fill="none" stroke="#111111" stroke-width="2" stroke-linecap="round" stroke-linejoin="round"><path d="M7 11a5 5 0 0 1 10 0 M5 12a7 7 0 0 1 14 0 M9 16a3 3 0 0 1 6 0 M11 20a2 2 0 0 0 2-2v-4"/></g>
<g id="TWI-077" data-name="Password" data-category="security" transform="translate(132 516) scale(3.2)" fill="none" stroke="#111111" stroke-width="2" stroke-linecap="round" stroke-linejoin="round"><path d="M5 8h14v8H5z M8 12h.01 M12 12h.01 M16 12h.01"/></g>
<g id="TWI-078" data-name="Eye" data-category="security" transform="translate(228 516) scale(3.2)" fill="none" stroke="#111111" stroke-width="2" stroke-linecap="round" stroke-linejoin="round"><path d="M3 12s3.5-6 9-6 9 6 9 6-3.5 6-9 6-9-6-9-6ZM12 9a3 3 0 1 0 0 6 3 3 0 0 0 0-6Z"/></g>
<g id="TWI-079" data-name="Eye Off" data-category="security" transform="translate(324 516) scale(3.2)" fill="none" stroke="#111111" stroke-width="2" stroke-linecap="round" stroke-linejoin="round"><path d="M4 4l16 16 M3 12s3.5-6 9-6c2.2 0 4.1.9 5.7 2.1 M19.5 13.5C17.9 16.1 15.1 18 12 18c-5.5 0-9-6-9-6"/></g>
<g id="TWI-080" data-name="Verified" data-category="security" transform="translate(420 516) scale(3.2)" fill="none" stroke="#111111" stroke-width="2" stroke-linecap="round" stroke-linejoin="round"><path d="M12 3l2 1.5 2.5-.2 1.2 2.2 2.1 1.3-.5 2.5.8 2.3-1.8 1.8-.2 2.5-2.4.8-1.7 1.8-2.3-1-2.3.2-1.4-2-2.4-.7.1-2.5L5 12l1.4-2-.2-2.5 2.3-1 1.2-2.2 2.3.2z M8.5 12.5l2 2 5-5"/></g>
<g id="TWI-081" data-name="Laptop" data-category="technology" transform="translate(516 516) scale(3.2)" fill="none" stroke="#111111" stroke-width="2" stroke-linecap="round" stroke-linejoin="round"><path d="M5 5h14v10H5z M3 18h18"/></g>
<g id="TWI-082" data-name="Desktop" data-category="technology" transform="translate(612 516) scale(3.2)" fill="none" stroke="#111111" stroke-width="2" stroke-linecap="round" stroke-linejoin="round"><path d="M4 4h16v11H4z M8 19h8 M10 15v4 M14 15v4"/></g>
<g id="TWI-083" data-name="Tablet" data-category="technology" transform="translate(708 516) scale(3.2)" fill="none" stroke="#111111" stroke-width="2" stroke-linecap="round" stroke-linejoin="round"><path d="M7 3h10v18H7z M11 18h2"/></g>
<g id="TWI-084" data-name="Smartphone" data-category="technology" transform="translate(804 516) scale(3.2)" fill="none" stroke="#111111" stroke-width="2" stroke-linecap="round" stroke-linejoin="round"><path d="M8 2h8v20H8z M11 5h2 M11 19h2"/></g>
<g id="TWI-085" data-name="Server" data-category="technology" transform="translate(900 516) scale(3.2)" fill="none" stroke="#111111" stroke-width="2" stroke-linecap="round" stroke-linejoin="round"><path d="M4 5h16v6H4z M4 13h16v6H4z M7 8h.01 M7 16h.01 M10 8h7 M10 16h7"/></g>
<g id="TWI-086" data-name="Database" data-category="technology" transform="translate(996 516) scale(3.2)" fill="none" stroke="#111111" stroke-width="2" stroke-linecap="round" stroke-linejoin="round"><path d="M5 6c0-2 14-2 14 0v12c0 2-14 2-14 0z M5 6c0 2 14 2 14 0 M5 12c0 2 14 2 14 0"/></g>
<g id="TWI-087" data-name="CPU" data-category="technology" transform="translate(1092 516) scale(3.2)" fill="none" stroke="#111111" stroke-width="2" stroke-linecap="round" stroke-linejoin="round"><path d="M7 7h10v10H7z M9 9h6v6H9z M9 3v4 M12 3v4 M15 3v4 M9 17v4 M12 17v4 M15 17v4 M3 9h4 M3 12h4 M3 15h4 M17 9h4 M17 12h4 M17 15h4"/></g>
<g id="TWI-088" data-name="Cloud" data-category="technology" transform="translate(1188 516) scale(3.2)" fill="none" stroke="#111111" stroke-width="2" stroke-linecap="round" stroke-linejoin="round"><path d="M7 18h9a4 4 0 0 0 .8-7.9A5.5 5.5 0 0 0 6 8.2 4.5 4.5 0 0 0 7 18Z"/></g>
<g id="TWI-089" data-name="Cloud Upload" data-category="technology" transform="translate(1284 516) scale(3.2)" fill="none" stroke="#111111" stroke-width="2" stroke-linecap="round" stroke-linejoin="round"><path d="M7 18h9a4 4 0 0 0 .8-7.9A5.5 5.5 0 0 0 6 8.2 4.5 4.5 0 0 0 7 18Z M12 18v-6 M9.5 14.5 12 12l2.5 2.5"/></g>
<g id="TWI-090" data-name="Cloud Download" data-category="technology" transform="translate(1380 516) scale(3.2)" fill="none" stroke="#111111" stroke-width="2" stroke-linecap="round" stroke-linejoin="round"><path d="M7 18h9a4 4 0 0 0 .8-7.9A5.5 5.5 0 0 0 6 8.2 4.5 4.5 0 0 0 7 18Z M12 12v6 M9.5 15.5 12 18l2.5-2.5"/></g>
<g id="TWI-091" data-name="Code" data-category="developer" transform="translate(36 612) scale(3.2)" fill="none" stroke="#111111" stroke-width="2" stroke-linecap="round" stroke-linejoin="round"><path d="M9 7 4 12l5 5 M15 7l5 5-5 5"/></g>
<g id="TWI-092" data-name="Terminal" data-category="developer" transform="translate(132 612) scale(3.2)" fill="none" stroke="#111111" stroke-width="2" stroke-linecap="round" stroke-linejoin="round"><path d="M5 6h14v12H5z M8 10l2 2-2 2 M12 15h4"/></g>
<g id="TWI-093" data-name="Brackets" data-category="developer" transform="translate(228 612) scale(3.2)" fill="none" stroke="#111111" stroke-width="2" stroke-linecap="round" stroke-linejoin="round"><path d="M9 5 5 9l3 3-3 3 4 4 M15 5l4 4-3 3 3 3-4 4"/></g>
<g id="TWI-094" data-name="Command" data-category="developer" transform="translate(324 612) scale(3.2)" fill="none" stroke="#111111" stroke-width="2" stroke-linecap="round" stroke-linejoin="round"><path d="M7 4a3 3 0 1 0 0 6h10a3 3 0 1 0 0-6h-3v16 M7 14a3 3 0 1 0 0 6h10a3 3 0 1 0 0-6H7V4"/></g>
<g id="TWI-095" data-name="Bug" data-category="developer" transform="translate(420 612) scale(3.2)" fill="none" stroke="#111111" stroke-width="2" stroke-linecap="round" stroke-linejoin="round"><path d="M9 8a3 3 0 1 1 6 0v8a3 3 0 0 1-6 0z M6 10H3 M6 14H3 M18 10h3 M18 14h3 M8 6 6 4 M16 6l2-2"/></g>
<g id="TWI-096" data-name="API" data-category="developer" transform="translate(516 612) scale(3.2)" fill="none" stroke="#111111" stroke-width="2" stroke-linecap="round" stroke-linejoin="round"><path d="M5 6h14v12H5z M8 10h3 M8 14h8 M13 10h3"/></g>
<g id="TWI-097" data-name="Git Branch" data-category="developer" transform="translate(612 612) scale(3.2)" fill="none" stroke="#111111" stroke-width="2" stroke-linecap="round" stroke-linejoin="round"><path d="M6 4a2 2 0 1 0 0 4 2 2 0 0 0-2-4ZM18 16a2 2 0 1 0 0 4 2 2 0 0 0-4ZM6 8v6a4 4 0 0 0 4 4h6"/></g>
<g id="TWI-098" data-name="Code File" data-category="developer" transform="translate(708 612) scale(3.2)" fill="none" stroke="#111111" stroke-width="2" stroke-linecap="round" stroke-linejoin="round"><path d="M6 3h7l5 5v13H6z M13 3v5h5 M10 13l-2 2 2 2 M14 13l2 2-2 2"/></g>
<g id="TWI-099" data-name="Package" data-category="developer" transform="translate(804 612) scale(3.2)" fill="none" stroke="#111111" stroke-width="2" stroke-linecap="round" stroke-linejoin="round"><path d="M4 7l8-4 8 4-8 4z M4 7v10l8 4 8-4V7 M12 11v10 M8 5l8 4"/></g>
<g id="TWI-100" data-name="QR Code" data-category="developer" transform="translate(900 612) scale(3.2)" fill="none" stroke="#111111" stroke-width="2" stroke-linecap="round" stroke-linejoin="round"><path d="M4 4h6v6H4z M14 4h6v6h-6z M4 14h6v6H4z M14 14h2v2h-2z M18 14h2v2h-2z M14 18h2v2h-2z M18 18h2v2h-2z"/></g>
<g id="TWI-101" data-name="Dashboard" data-category="data" transform="translate(996 612) scale(3.2)" fill="none" stroke="#111111" stroke-width="2" stroke-linecap="round" stroke-linejoin="round"><path d="M4 4h7v7H4z M13 4h7v7h-7z M4 13h7v7H4z M13 13h7v7h-7z"/></g>
<g id="TWI-102" data-name="Grid" data-category="data" transform="translate(1092 612) scale(3.2)" fill="none" stroke="#111111" stroke-width="2" stroke-linecap="round" stroke-linejoin="round"><path d="M4 4h5v5H4z M11 4h5v5h-5z M18 4h2v5h-2z M4 11h5v5H4z M11 11h5v5h-5z M18 11h2v5h-2z M4 18h5v2H4z M11 18h5v2h-5z M18 18h2v2h-2z"/></g>
<g id="TWI-103" data-name="List" data-category="data" transform="translate(1188 612) scale(3.2)" fill="none" stroke="#111111" stroke-width="2" stroke-linecap="round" stroke-linejoin="round"><path d="M5 6h2 M10 6h9 M5 12h2 M10 12h9 M5 18h2 M10 18h9"/></g>
<g id="TWI-104" data-name="Sliders" data-category="data" transform="translate(1284 612) scale(3.2)" fill="none" stroke="#111111" stroke-width="2" stroke-linecap="round" stroke-linejoin="round"><path d="M5 5v14 M12 5v14 M19 5v14 M3 8h4 M10 16h4 M17 10h4"/></g>
<g id="TWI-105" data-name="Filter" data-category="data" transform="translate(1380 612) scale(3.2)" fill="none" stroke="#111111" stroke-width="2" stroke-linecap="round" stroke-linejoin="round"><path d="M4 5h16l-6 7v6l-4 2v-8z"/></g>
<g id="TWI-106" data-name="Sort" data-category="data" transform="translate(36 708) scale(3.2)" fill="none" stroke="#111111" stroke-width="2" stroke-linecap="round" stroke-linejoin="round"><path d="M6 7h12 M6 12h8 M6 17h4 M17 5v14 M14 16l3 3 3-3"/></g>
<g id="TWI-107" data-name="Chart Bar" data-category="data" transform="translate(132 708) scale(3.2)" fill="none" stroke="#111111" stroke-width="2" stroke-linecap="round" stroke-linejoin="round"><path d="M5 19V10h3v9H5z M10 19V5h3v14h-3z M15 19v-6h3v6h-3z"/></g>
<g id="TWI-108" data-name="Chart Line" data-category="data" transform="translate(228 708) scale(3.2)" fill="none" stroke="#111111" stroke-width="2" stroke-linecap="round" stroke-linejoin="round"><path d="M4 18l5-6 4 3 6-8 M17 7h2v2"/></g>
<g id="TWI-109" data-name="Chart Pie" data-category="data" transform="translate(324 708) scale(3.2)" fill="none" stroke="#111111" stroke-width="2" stroke-linecap="round" stroke-linejoin="round"><path d="M12 4v8h8A8 8 0 1 1 12 4Z M12 4a8 8 0 0 1 8 8h-8z"/></g>
<g id="TWI-110" data-name="Analytics" data-category="data" transform="translate(420 708) scale(3.2)" fill="none" stroke="#111111" stroke-width="2" stroke-linecap="round" stroke-linejoin="round"><path d="M4 19V7 M4 19h16 M7 16l3-5 3 2 5-7"/></g>
<g id="TWI-111" data-name="Pin" data-category="location-weather" transform="translate(516 708) scale(3.2)" fill="none" stroke="#111111" stroke-width="2" stroke-linecap="round" stroke-linejoin="round"><path d="M12 20s6-6 6-11a6 6 0 1 0-12 0c0 5 6 11 6 11Z M12 7a2 2 0 1 0 0 4 2 2 0 0 0-4Z"/></g>
<g id="TWI-112" data-name="Map" data-category="location-weather" transform="translate(612 708) scale(3.2)" fill="none" stroke="#111111" stroke-width="2" stroke-linecap="round" stroke-linejoin="round"><path d="M4 6l5-2 6 2 5-2v14l-5 2-6-2-5 2z M9 4v14 M15 6v14"/></g>
<g id="TWI-113" data-name="Globe" data-category="location-weather" transform="translate(708 708) scale(3.2)" fill="none" stroke="#111111" stroke-width="2" stroke-linecap="round" stroke-linejoin="round"><path d="M12 3a9 9 0 1 0 0 18 9 9 0 0 0 0-18Z M3 12h18 M12 3c3 3 3 15 0 18 M12 3c-3 3-3 15 0 18"/></g>
<g id="TWI-114" data-name="Compass" data-category="location-weather" transform="translate(804 708) scale(3.2)" fill="none" stroke="#111111" stroke-width="2" stroke-linecap="round" stroke-linejoin="round"><path d="M12 3a9 9 0 1 0 0 18 9 9 0 0 0 0-18Z M15.5 8.5 14 14l-5.5 1.5L10 10z"/></g>
<g id="TWI-115" data-name="Navigation" data-category="location-weather" transform="translate(900 708) scale(3.2)" fill="none" stroke="#111111" stroke-width="2" stroke-linecap="round" stroke-linejoin="round"><path d="M12 3l5 18-5-4-5 4z"/></g>
<g id="TWI-116" data-name="Sun" data-category="location-weather" transform="translate(996 708) scale(3.2)" fill="none" stroke="#111111" stroke-width="2" stroke-linecap="round" stroke-linejoin="round"><path d="M12 5V2 M12 22v-3 M5 12H2 M22 12h-3 M5 5 3 3 M21 21l-2-2 M19 5l2-2 M3 21l2-2 M12 7a5 5 0 1 0 0 10 5 5 0 0 0-10Z"/></g>
<g id="TWI-117" data-name="Moon" data-category="location-weather" transform="translate(1092 708) scale(3.2)" fill="none" stroke="#111111" stroke-width="2" stroke-linecap="round" stroke-linejoin="round"><path d="M18 15.5A7 7 0 0 1 8.5 6 7 7 0 1 0 18 15.5Z"/></g>
<g id="TWI-118" data-name="Cloud Sun" data-category="location-weather" transform="translate(1188 708) scale(3.2)" fill="none" stroke="#111111" stroke-width="2" stroke-linecap="round" stroke-linejoin="round"><path d="M6 16h9a4 4 0 0 0 .7-7.9A5 5 0 0 0 7 9.5 M7 4v2 M3 8h2 M4.5 5.5 6 7 M17 4v2 M14 8h2"/></g>
<g id="TWI-119" data-name="Rain" data-category="location-weather" transform="translate(1284 708) scale(3.2)" fill="none" stroke="#111111" stroke-width="2" stroke-linecap="round" stroke-linejoin="round"><path d="M7 15h9a4 4 0 0 0 .7-7.9A5 5 0 0 0 7 9.5A4 4 0 0 0 7 15Z M8 18l-1 3 M13 18l-1 3 M18 18l-1 3"/></g>
<g id="TWI-120" data-name="Lightning" data-category="location-weather" transform="translate(1380 708) scale(3.2)" fill="none" stroke="#111111" stroke-width="2" stroke-linecap="round" stroke-linejoin="round"><path d="M13 2 5 13h6l-1 9 8-11h-6z"/></g>
<g id="TWI-121" data-name="Settings" data-category="utility" transform="translate(36 804) scale(3.2)" fill="none" stroke="#111111" stroke-width="2" stroke-linecap="round" stroke-linejoin="round"><path d="M12 4l1 2 2 .8 2.1-1 2 2-1 2.1.8 2 2 .9v2.8l-2 .9-.8 2 1 2.1-2 2-2.1-1-2 .8-1 2H9l-1-2-2-.8-2.1 1-2-2 1-2.1-.8-2-2-2v-2.8l2-.9.8-2-1-2.1 2-2 2.1 1L8 6l1-2z M12 9a3 3 0 1 0 0 6 3 3 0 0 0 0-6Z"/></g>
<g id="TWI-122" data-name="Info" data-category="utility" transform="translate(132 804) scale(3.2)" fill="none" stroke="#111111" stroke-width="2" stroke-linecap="round" stroke-linejoin="round"><path d="M12 3a9 9 0 1 0 0 18 9 9 0 0 0 0-18Z M12 10v6 M12 7.2v.01"/></g>
<g id="TWI-123" data-name="Help" data-category="utility" transform="translate(228 804) scale(3.2)" fill="none" stroke="#111111" stroke-width="2" stroke-linecap="round" stroke-linejoin="round"><path d="M9.5 9a2.7 2.7 0 1 1 4.3 2.2c-1.2.9-1.8 1.3-1.8 2.8 M12 17.5v.01 M12 3a9 9 0 1 0 0 18 9 9 0 0 0-18Z"/></g>
<g id="TWI-124" data-name="Warning" data-category="utility" transform="translate(324 804) scale(3.2)" fill="none" stroke="#111111" stroke-width="2" stroke-linecap="round" stroke-linejoin="round"><path d="M12 3l9 17H3z M12 9v5 M12 17v.01"/></g>
<g id="TWI-125" data-name="Danger" data-category="utility" transform="translate(420 804) scale(3.2)" fill="none" stroke="#111111" stroke-width="2" stroke-linecap="round" stroke-linejoin="round"><path d="M12 3a9 9 0 1 0 0 18 9 9 0 0 0 0-18Z M12 8v5 M12 17v.01"/></g>
<g id="TWI-126" data-name="Calendar" data-category="utility" transform="translate(516 804) scale(3.2)" fill="none" stroke="#111111" stroke-width="2" stroke-linecap="round" stroke-linejoin="round"><path d="M5 4h14v16H5z M8 2v4 M16 2v4 M5 9h14 M8 12h2 M12 12h2 M16 12h.01 M8 16h2 M12 16h2"/></g>
<g id="TWI-127" data-name="Clock" data-category="utility" transform="translate(612 804) scale(3.2)" fill="none" stroke="#111111" stroke-width="2" stroke-linecap="round" stroke-linejoin="round"><path d="M12 4a8 8 0 1 0 0 16 8 8 0 0 0 0-16Z M12 8v5l3 2"/></g>
<g id="TWI-128" data-name="Stopwatch" data-category="utility" transform="translate(708 804) scale(3.2)" fill="none" stroke="#111111" stroke-width="2" stroke-linecap="round" stroke-linejoin="round"><path d="M9 3h6 M12 6v2 M7 7l-2-2 M17 7l2-2 M12 9v3l2 1 M12 7a6 6 0 1 0 0 12 6 6 0 0 0-12-12Z"/></g>
<g id="TWI-129" data-name="Calculator" data-category="utility" transform="translate(804 804) scale(3.2)" fill="none" stroke="#111111" stroke-width="2" stroke-linecap="round" stroke-linejoin="round"><path d="M5 3h14v18H5z M8 7h8 M8 11h2 M12 11h2 M16 11h.01 M8 15h2 M12 15h2 M16 15h.01 M8 19h8"/></g>
<g id="TWI-130" data-name="Printer" data-category="utility" transform="translate(900 804) scale(3.2)" fill="none" stroke="#111111" stroke-width="2" stroke-linecap="round" stroke-linejoin="round"><path d="M6 9V4h12v5 M6 16H4a2 2 0 0 1-2-2v-3a2 2 0 0 1 2-2h16a2 2 0 0 1 2 2v3a2 2 0 0 1-2 2h-2v4H6z M7 13h10"/></g>
<g id="TWI-131" data-name="Edit" data-category="creative" transform="translate(996 804) scale(3.2)" fill="none" stroke="#111111" stroke-width="2" stroke-linecap="round" stroke-linejoin="round"><path d="M5 16v3h3l10-10-3-3z M13 6l3 3"/></g>
<g id="TWI-132" data-name="Pencil" data-category="creative" transform="translate(1092 804) scale(3.2)" fill="none" stroke="#111111" stroke-width="2" stroke-linecap="round" stroke-linejoin="round"><path d="M5 19l3-.7L18 8l-3-3L5 15.3z M13 6l3 3"/></g>
<g id="TWI-133" data-name="Brush" data-category="creative" transform="translate(1188 804) scale(3.2)" fill="none" stroke="#111111" stroke-width="2" stroke-linecap="round" stroke-linejoin="round"><path d="M14 5l5 5-7 7H7v-5z M7 17c-2 0-3 1-3 3 2-1 4 0 4-3"/></g>
<g id="TWI-134" data-name="Palette" data-category="creative" transform="translate(1284 804) scale(3.2)" fill="none" stroke="#111111" stroke-width="2" stroke-linecap="round" stroke-linejoin="round"><path d="M12 4a8 8 0 1 0 0 16h1.5a2 2 0 0 0 0-4H12a2 2 0 0 1 0-4h4a4 4 0 0 0 0-8z M7 10h.01 M9 7h.01 M13 7h.01 M16 10h.01"/></g>
<g id="TWI-135" data-name="Crop" data-category="creative" transform="translate(1380 804) scale(3.2)" fill="none" stroke="#111111" stroke-width="2" stroke-linecap="round" stroke-linejoin="round"><path d="M5 5h9v2H7v7h-2z M19 19h-9v-2h7v-7h2z"/></g>
<g id="TWI-136" data-name="Layers" data-category="creative" transform="translate(36 900) scale(3.2)" fill="none" stroke="#111111" stroke-width="2" stroke-linecap="round" stroke-linejoin="round"><path d="M4 7l8-4 8 4-8 4z M4 12l8 4 8-4 M4 17l8 4 8-4"/></g>
<g id="TWI-137" data-name="Ruler" data-category="creative" transform="translate(132 900) scale(3.2)" fill="none" stroke="#111111" stroke-width="2" stroke-linecap="round" stroke-linejoin="round"><path d="M5 18 18 5l2 2-13 13z M8 15l2 2 M11 12l2 2 M14 9l2 2"/></g>
<g id="TWI-138" data-name="Color Drop" data-category="creative" transform="translate(228 900) scale(3.2)" fill="none" stroke="#111111" stroke-width="2" stroke-linecap="round" stroke-linejoin="round"><path d="M12 3s6 6 6 11a6 6 0 1 1-12 0c0-5 6-11 6-11Z"/></g>
<g id="TWI-139" data-name="Magic Wand" data-category="creative" transform="translate(324 900) scale(3.2)" fill="none" stroke="#111111" stroke-width="2" stroke-linecap="round" stroke-linejoin="round"><path d="M14 4l6 6 M8 8l8 8 M5 3v3 M3 5h4 M18 17v4 M16 19h4"/></g>
<g id="TWI-140" data-name="Scissors" data-category="creative" transform="translate(420 900) scale(3.2)" fill="none" stroke="#111111" stroke-width="2" stroke-linecap="round" stroke-linejoin="round"><path d="M7 6a2.5 2.5 0 1 1-5 0 2.5 2.5 0 0 1 5 0ZM7 18a2.5 2.5 0 1 1-5 0 2.5 2.5 0 0 1 5 0ZM7 7l12 11 M7 17L19 5"/></g>
<g id="TWI-141" data-name="Trash" data-category="objects" transform="translate(516 900) scale(3.2)" fill="none" stroke="#111111" stroke-width="2" stroke-linecap="round" stroke-linejoin="round"><path d="M6 7h12l-1 13H7z M5 7h14 M9 4h6 M10 10v6 M14 10v6"/></g>
<g id="TWI-142" data-name="Archive" data-category="objects" transform="translate(612 900) scale(3.2)" fill="none" stroke="#111111" stroke-width="2" stroke-linecap="round" stroke-linejoin="round"><path d="M4 6h16v14H4z M4 6l2-3h12l2 3 M8 11h8"/></g>
<g id="TWI-143" data-name="Box" data-category="objects" transform="translate(708 900) scale(3.2)" fill="none" stroke="#111111" stroke-width="2" stroke-linecap="round" stroke-linejoin="round"><path d="M4 7l8-4 8 4-8 4z M4 7v10l8 4 8-4V7 M12 11v10"/></g>
<g id="TWI-144" data-name="Link" data-category="objects" transform="translate(804 900) scale(3.2)" fill="none" stroke="#111111" stroke-width="2" stroke-linecap="round" stroke-linejoin="round"><path d="M8 12h8 M9 8H7a4 4 0 0 0 0 8h2 M15 8h2a4 4 0 0 1 0 8h-2"/></g>
<g id="TWI-145" data-name="Attachment" data-category="objects" transform="translate(900 900) scale(3.2)" fill="none" stroke="#111111" stroke-width="2" stroke-linecap="round" stroke-linejoin="round"><path d="M8 12l5-5a3 3 0 0 1 4 4l-6 6a5 5 0 0 1-7-7l6-6"/></g>
<g id="TWI-146" data-name="Save" data-category="objects" transform="translate(996 900) scale(3.2)" fill="none" stroke="#111111" stroke-width="2" stroke-linecap="round" stroke-linejoin="round"><path d="M5 4h12l2 2v14H5z M8 4v6h8V4 M8 17h8"/></g>
<g id="TWI-147" data-name="Rocket" data-category="objects" transform="translate(1092 900) scale(3.2)" fill="none" stroke="#111111" stroke-width="2" stroke-linecap="round" stroke-linejoin="round"><path d="M14 4c3 0 5 2 5 5 0 4-4 7-8 9l-3-3c2-4 5-8 9-11z M7 17l-4 1 1-4 M9 21l-1-4 M12 8a1.5 1.5 0 1 0 0 .01"/></g>
<g id="TWI-148" data-name="Sparkles" data-category="objects" transform="translate(1188 900) scale(3.2)" fill="none" stroke="#111111" stroke-width="2" stroke-linecap="round" stroke-linejoin="round"><path d="M12 3l1.2 4.8L18 9l-4.8 1.2L12 15l-1.2-4.8L6 9l4.8-1.2z M19 15l.7 2.3L22 18l-2.3.7L19 21l-.7-2.3L16 18l2.3-.7z M5 15l.6 1.9L7.5 17.5l-1.9.6L5 20l-.6-1.9-1.9-.6 1.9-.6z"/></g>
<g id="TWI-149" data-name="Power" data-category="objects" transform="translate(1284 900) scale(3.2)" fill="none" stroke="#111111" stroke-width="2" stroke-linecap="round" stroke-linejoin="round"><path d="M12 3v9 M7 5.5a8 8 0 1 0 10 0"/></g>
<g id="TWI-150" data-name="More" data-category="objects" transform="translate(1380 900) scale(3.2)" fill="none" stroke="#111111" stroke-width="2" stroke-linecap="round" stroke-linejoin="round"><path d="M5 12h.01 M12 12h.01 M19 12h.01"/></g>
</svg>
